PathFileType	4	(X/Y/Z)	pose_F01_0-92.trc
DataRate	CameraRate	NumFrames	NumMarkers	Units	OrigDataRate	OrigDataStartFrame	OrigNumFrames
30	30	10	21	m	30	46	92
Frame#	Time	CHip			RHip			RKnee			RAnkle			RBigToe			RSmallToe			RHeel			LHip			LKnee			LAnkle			LBigToe			LSmallToe			LHeel			Neck			Nose			RShoulder			RElbow			RWrist			LShoulder			LElbow			LWrist			
		X1	Y1	Z1	X2	Y2	Z2	X3	Y3	Z3	X4	Y4	Z4	X5	Y5	Z5	X6	Y6	Z6	X7	Y7	Z7	X8	Y8	Z8	X9	Y9	Z9	X10	Y10	Z10	X11	Y11	Z11	X12	Y12	Z12	X13	Y13	Z13	X14	Y14	Z14	X15	Y15	Z15	X16	Y16	Z16	X17	Y17	Z17	X18	Y18	Z18	X19	Y19	Z19	X20	Y20	Z20	X21	Y21	Z21	
46	1.5333333333333334	-0.14366075051799915	1.868622219750423	-0.5403987402178261	-0.1610707482899756	1.8671440947364972	-0.48570245676704454	-0.18864112137144715	1.719745914172487	-0.46958409020006375	-0.19217484628224255	1.601807065392978	-0.41107263976794595										-0.12618153918823022	1.870451961625631	-0.5983853349909647	-0.14532200882342294	1.7242295944925359	-0.5841035784672025	-0.11225260756011356	1.597534711016242	-0.5428484649750569	-0.14091234826907725	1.5663075509958029	-0.5942271862749906	-0.12459901032354002	1.569905349377664	-0.6075725946529151	-0.11037726507796705	1.589225454973671	-0.5345450182356226	-0.1628972046774126	2.0296824215461062	-0.5707950687649089	-0.2108414383455917	2.0827544744311877	-0.571391840002009	-0.18182542628906675	2.0250000096969125	-0.48720282069611814	-0.1953727968519242	1.9470436132505617	-0.4673344508564469	-0.2332353845931107	2.0019905897883543	-0.4916878259294962	-0.14016497053569885	2.0324728698376577	-0.6482549125890884	-0.15691601586785284	1.9525343912798958	-0.649854430791415	-0.2016325016896177	1.9998627476689121	-0.6319063390152357
47	1.5666666666666667	-0.14242444988508	1.8794123171357624	-0.547662518138687	-0.15883126408079162	1.8775889392868437	-0.4899417528182867	-0.18590908141478152	1.7277648586854688	-0.46920473443171024	-0.19217484628224255	1.601807065392978	-0.41107263976794595										-0.1259761504631508	1.8809038472655808	-0.6000799839207871	-0.13533871511611625	1.724507559605996	-0.5779588965528165	-0.11315620843303871	1.5975800893767438	-0.5460588326485148	-0.14092234595804148	1.5661658256902211	-0.5941556870458	-0.12458815886262746	1.5695463725374885	-0.6074952110528293	-0.11025282079576086	1.5879586845818368	-0.534934341243667	-0.15468048887743835	2.0335424959080868	-0.571841265323587	-0.20553225326127264	2.090046419411309	-0.5740009236985084	-0.17264820460532432	2.0317669895253117	-0.49403832534407366	-0.20057588844757498	1.9612846754792967	-0.48887431262251463	-0.22629645547509475	2.0192418103229945	-0.49536573056441885	-0.13406079047509037	2.037955584869148	-0.647442937158847	-1.542261068058165	1.8768255927430253	0.830269478790108	-0.19721196710667777	2.013498459747993	-0.6387081569969877
48	1.6	-0.14010623138396788	1.8858336355508603	-0.5511458786421718	-0.15758926783031427	1.8830359122411693	-0.4964187219284235	-0.18685560455625835	1.7336032118758518	-0.4732316895925731	-0.19217484628224255	1.601807065392978	-0.41107263976794595										-0.12381441607645358	1.8861197517796098	-0.6032205216469182	-0.13022733003372175	1.7312453346941035	-0.5801210254166571	-0.11263318178290072	1.6001839352258054	-0.5473183404592392	-0.14207998052866297	1.5662478567028717	-0.5886658097733486	-0.12373816443052708	1.56973063653214	-0.604194274672491	-0.1105150969728432	1.5876627785327355	-0.5389969832029353	-0.15038734919571872	2.0399398057926375	-0.5771651912921328	-0.19836139029149358	2.0912767721711667	-0.5774978952896569	-0.16857555013699688	2.040026179865855	-0.5006061633701853	-0.20161590375914346	1.9693289090602804	-0.4938643720155653	-0.2193575263570788	2.0364930308576352	-0.4990436351993415	-0.12941516377934917	2.044744777247678	-0.6519495319554067	-0.15562132178178073	1.9682690155904188	-0.669529258834828	-0.19463450353453435	2.0266704362623025	-0.642909531489136
49	1.6333333333333333	-0.14000932141383107	1.8844827087446183	-0.5508733782580792	-0.15738142223135318	1.8827610574516052	-0.49623346898971493	-0.18844039596502862	1.7354965192739118	-0.471737446418396	-0.19217484628224255	1.601807065392978	-0.41107263976794595										-0.1237692083267648	1.8861772772953107	-0.6032659018584454	-0.12977029742972396	1.7338197199709326	-0.5808009405248457	-0.11209659062595737	1.6025331972491241	-0.5484131085063326	-0.13826590592169224	1.5665450939029186	-0.5842684263950274	-0.12305701722309641	1.571148201453367	-0.600700257196046	-0.11100550823356291	1.5918326634815876	-0.5349162751637054	-0.14645040394035735	2.045915831344349	-0.5745225087687302	-0.19609804920142196	2.094988635623187	-0.579819450940457	-0.1653886620114723	2.04492199249768	-0.5000585558218591	-0.20250070617500313	1.9794025443583916	-0.4906386082717452	-0.2226142942146807	2.036207259202314	-0.5265248356083311	-0.12638748440627626	2.047481714349894	-0.6515136498492409	-0.157354486761661	1.9761291545595259	-0.6678708937383052	-0.19332508524710654	2.034460208772297	-0.6404097745280235
50	1.6666666666666667	-0.14287630940398582	1.886998968445288	-0.5522314142252104	-0.15732218767006162	1.8864099887998493	-0.4968306349360443	-0.18955761157887518	1.7353636232661125	-0.46612766815177953	-0.19217484628224255	1.601807065392978	-0.41107263976794595										-0.12461970924667065	1.8888009235305514	-0.6068846781450145	-0.12988077980807694	1.7350056940932013	-0.5807800423559342	-0.11289493793753325	1.5988105362073597	-0.5465838758968942	-0.13851381608411437	1.5651595570843269	-0.5836524247186204	-0.12289562786744508	1.5700556059134976	-0.6008846440151869	-0.11083302311844223	1.5902301984400014	-0.5303061680906367	-0.14337133112648895	2.0483059533856416	-0.5734231532446887	-0.18921578708087883	2.0986759613227703	-0.5752443872597631	-0.16144421882422377	2.0467490084273163	-0.49570295961950644	-0.2005556333252385	1.9854903075910717	-0.4855580875343285	-0.22045917808540758	2.0403203242957124	-0.5205644954343015	-0.12629037372825733	2.047510228546156	-0.651601955779322	-0.1586306029276271	1.9761293022239403	-0.6624837138144155	-0.1911115440267532	2.0360905787056565	-0.6422655144768455
51	1.7	-0.14396334393054147	1.8866451676844314	-0.5465629741260369	-0.15923421077477037	1.8850059551449723	-0.4941790132166747	-0.18737626279777853	1.7359335350585365	-0.4505356605093044	-0.19217484628224255	1.601807065392978	-0.41107263976794595										-0.12856343351513957	1.8885313442705873	-0.6020569761594572	-0.1291421534960761	1.7349425103355605	-0.5774620663022233	-0.11468823496195124	1.6001581244483636	-0.5450230161688089	-0.1412133051734834	1.5660041910385853	-0.5853222224469862	-0.12378829546473902	1.5696706044314608	-0.6041418525253615	-0.11170616940932726	1.5902743792544014	-0.5337211749692851	-0.1426316991009271	2.0481911868277303	-0.5709168231011769	-0.18636163899221247	2.1018866255122126	-0.56694201456409	-0.15957181232579512	2.0457616604719777	-0.4894783903191823	-0.20049332648406606	1.9888710088299728	-0.4772787499450964	-0.21704376968447042	2.0489457637498005	-0.5207744308401768	-0.12632570780898963	2.048818214295692	-0.6519709021503681	-0.15897438393350427	1.9773393853017716	-0.6538370072114424	-0.1898240771134735	2.0420462279868232	-0.6394204514270627
52	1.7333333333333334	-0.14943558761501013	1.8865179948981663	-0.5364834647599707	-0.1624233372185138	1.8861472579656897	-0.4864957628592165	-0.18610850564327172	1.734210857155008	-0.43810242453195963	-0.19217484628224255	1.601807065392978	-0.41107263976794595										-0.13210031020097446	1.889313025352717	-0.5942218269486058	-0.13323441494146704	1.737278633246689	-0.5732004780640142	-0.1149433036125391	1.598680835545896	-0.5442804003747608	-0.13916340743164826	1.5665131672767032	-0.5875734200377312	-0.12264746583048274	1.5714117478294405	-0.6015700322058153	-0.11376239993077873	1.587222586109973	-0.5310405328816159	-0.1457249669734794	2.050396135400557	-0.5636029447340086	-0.18544648364683322	2.1066854044297205	-0.5653650181514612	-0.16051740692086885	2.049134153976173	-0.4842983297777961	-0.2063878098671955	1.9875604783516283	-0.4700599436519995	-0.21391167569930938	2.0535821920841233	-0.519983594395405	-0.12678708465620625	2.051476962855434	-0.6437449335843802	-0.15304584695183834	1.9815088534509773	-0.6528486637669573	-0.19236036774079845	2.0372639827875694	-0.6375413303139282
53	1.7666666666666666	-0.15246076537785244	1.8862114052985872	-0.528238212893907	-0.16555422471935863	1.88454190667351	-0.4693160861838531	-0.18485441953720239	1.7381110140121117	-0.42633772068619596	-0.19217484628224255	1.601807065392978	-0.41107263976794595										-0.13754705299189707	1.8876480905362403	-0.5836823693914833	-0.13701256922212196	1.7393242113258922	-0.569153266777729	-0.11695367503393429	1.6010610459686223	-0.542430714882104	-0.14131314051024668	1.5667622177383873	-0.5852737673757273	-0.12286342753569894	1.5719633327716607	-0.6014890072497486	-0.11398126421557293	1.5909351656586181	-0.5311507324736102	-0.14700147283984993	2.0501846560769095	-0.5579656910710707	-0.18851519714042042	2.1078602244990217	-0.5586881634208326	-0.16363194564644734	2.04776192527642	-0.47663884550368063	-0.20834037273869135	1.989880046455873	-0.4683373036015798	-0.2128862615084355	2.0561992878026776	-0.5172404355120317	-0.12778176632189842	2.052952485883845	-0.627649592766548	-0.15167188760889203	1.9794726873992612	-0.6469961916244296	-0.1883257811767014	2.0398482692670536	-0.6332446042009681
54	1.8	-0.15660569856690845	1.8897973053878205	-0.515211133429879	-0.16847039981555356	1.8878466505986302	-0.4531214984365758	-0.18029094687727407	1.7391899429307947	-0.4134029669487309	-0.19217484628224255	1.601807065392978	-0.41107263976794595										-0.14354084760149402	1.8916108211156075	-0.5770235679451788	-0.14016638135603077	1.7452052067736858	-0.5622781771125932	-0.11822631472450927	1.6046557793135265	-0.5418116205484685	-0.14108714607611086	1.5680646947821801	-0.5858202969273081	-0.12559389598485987	1.5734319599956315	-0.6031266826298692	-0.11537237772212965	1.5982169313386703	-0.5307432010099689	-0.14749117933428602	2.050790257196254	-0.5406621750442082	-0.1854993906894485	2.110090479870416	-0.5572866854782055	-0.16645426386503875	2.049662936342219	-0.46875427771321265	-0.20710177939519342	1.9931703411010233	-0.45705759010996344	-0.21056359690683754	2.0600136706800325	-0.5107945832101644	-0.13246454197890678	2.0520276902011703	-0.6143906801593212	-0.16357444340380467	1.9814358136278671	-0.6302260996869724	-0.1926243272574716	2.047102092405634	-0.6213540434256524
55	1.8333333333333333	-0.15775581827824536	1.8904389439435125	-0.5007887127061739	-0.16937630919750568	1.8886398299978098	-0.44743448669238156	-0.17922920084653682	1.7408324683668088	-0.41014149148537493	-0.19217484628224255	1.601807065392978	-0.41107263976794595										-0.14383381198267292	1.892682633504346	-0.5682348602383518	-0.14170140572427187	1.7465581723699908	-0.5605443736401412	-0.11762267160094683	1.6092721954219582	-0.5433440927104921	-0.14113059184670376	1.568357518152066	-0.5859099185139678	-0.12595460969865727	1.57513057324885	-0.6028681336157008	-0.11455505583944864	1.5990188439391413	-0.5318818203122002	-0.14966079419189307	2.0529504281099396	-0.5302031113295089	-0.184735064160501	2.1099843567835674	-0.5550047952480307	-0.1655010349867066	2.05153890353652	-0.4573591661671964	-0.20709081143276728	1.995759202880259	-0.4574177131208839	-0.209746425929629	2.0582519651672864	-0.5069488514154907	-0.1337514689818256	2.054357411051348	-0.6091420369050053	-0.16381312728800682	1.9826657367348683	-0.621462919141948	-0.19685373183790963	2.0484324726260454	-0.617244785968857
